<svg width="653" height="601" viewBox="0 0 653 601" fill="none" xmlns="http://www.w3.org/2000/svg">
<g opacity="0.2">
<path fill-rule="evenodd" clip-rule="evenodd" d="M253.171 250.979C253.132 242.105 237.477 232.125 230.789 226.98C217.567 216.804 203.815 207.406 190.19 197.859C176.566 188.312 162.904 178.79 149.913 168.309C141.477 161.504 131.565 153.841 125.844 144.126C113.656 123.421 152.083 126.496 162.036 126.043C187.358 124.886 216.402 125.414 240.137 114.632C254.306 108.195 259.956 97.4006 256.913 81.6677C255.932 76.5511 253.029 70.6632 255.488 65.6786C258.115 60.355 264.157 57.2829 269.172 55.2228C287.463 47.7174 308.493 46.8478 327.846 45.9058C348.715 44.8705 369.779 45.1734 390.5 45.0931C399.287 45.0595 408.463 41.7286 416.83 39.0215C427.799 35.4733 438.638 31.4876 449.516 27.634C473.447 19.1762 498.107 10.2681 523.426 8.11996C539.282 6.77416 556.612 8.59358 568.929 20.2994C575.114 26.1769 578.351 34.9142 581.926 42.6759C586.254 52.0524 590.411 61.5196 595.019 70.7486C609.862 100.473 631.054 129.519 665.451 130.978C670.655 131.198 675.766 130.481 680.945 130.347C684.243 130.264 687.178 131.105 688.404 134.746C691.487 143.88 681.798 158.298 677.825 165.544C669.127 181.407 659.318 196.557 650.13 212.101C644.051 222.381 633.528 236.429 633.418 248.919C633.32 260.048 647.347 268.092 654.983 273.573C662.139 278.705 675.103 285.887 675.888 296.327C676.268 301.39 673.105 305.585 669.802 308.841C664.012 314.534 657.342 318.551 652.133 325.047C643.592 335.705 636.456 350.369 637.616 364.73C638.421 374.681 643.801 381.198 650.645 387.427C653.521 390.047 655.856 391.9 656.008 396.152C656.253 402.904 653.747 410.05 651.682 416.31C644.296 438.715 633.806 460.38 622.135 480.608C616.304 490.717 610.004 500.795 602.272 509.419C597.208 515.081 590.379 521.821 582.655 521.813C573.711 521.813 564.248 518.407 555.555 515.86C539.319 511.101 523.279 505.599 507.303 499.954C470.356 486.895 433.756 472.778 397.504 457.603C371.969 446.896 345.892 436.174 321.885 421.939C317.203 419.144 312.784 415.885 308.687 412.206C304.31 408.342 298.878 406.613 293.37 405.324C259.186 397.324 221.736 403.466 187.41 407.317C178.697 408.292 169.984 409.273 161.247 409.957C153.736 410.544 144.743 412.229 137.443 409.698C123.058 404.716 135.633 386.353 140.95 378.871C159.668 352.527 183.817 330.239 206.201 307.485C216.844 296.648 227.567 285.841 237.631 274.391C242.872 268.438 253.205 258.759 253.171 250.979Z" stroke="#101828"/>
<path fill-rule="evenodd" clip-rule="evenodd" d="M259.621 249.483C253.884 240.093 243.818 233.152 235.463 226.62C223.438 217.216 211.036 208.335 198.821 199.198C187.27 190.558 175.695 181.819 164.999 172.007C158.476 166.024 150.292 158.868 147.203 150.018C140.501 130.836 176.554 133.747 185.454 133.245C207.581 132.003 232.668 131.718 253.138 121.619C265.92 115.312 271.172 104.853 268.446 90.3328C267.503 85.309 265.805 81.0198 267.955 76.0219C270.441 70.2375 276.158 66.6314 281.4 64.0858C297.819 56.1103 317.227 54.4159 335.025 53.006C353.412 51.5496 372.57 50.5226 390.365 51.5884C397.482 52.0126 405.673 49.6042 412.716 47.7571C423.552 44.9115 434.278 41.6287 445.061 38.5761C466.974 32.3675 489.457 26.3866 512.253 25.7062C528.712 25.2147 545.872 27.8792 559.565 38.1778C573.442 48.6212 579.598 64.8102 587.294 80.1998C600.584 106.806 618.535 139.156 649.282 144.777C653.944 145.631 658.425 145.168 663.083 145.377C665.478 145.483 668.204 145.82 669.419 148.311C672.572 154.778 663.932 166.603 661.024 171.557C652.99 185.247 643.957 198.267 635.538 211.693C628.851 222.354 620.375 234.199 617.789 246.837C614.65 262.172 635.157 273.084 642.369 283.881C654.872 302.606 631.185 313.274 619.506 322.202C606.096 332.451 595.026 351.149 607.048 367.007C611.647 373.071 617.305 376.685 619.359 384.598C622.571 396.974 620.142 411.117 617.536 423.35C613.61 441.741 607.396 459.932 598.95 476.553C592.899 488.453 582.86 507.112 568.158 505.713C558.262 504.779 548.201 501.367 538.564 498.35C524.135 493.836 509.888 488.691 495.717 483.346C463.004 471.043 430.651 457.477 398.935 442.556C377.294 432.371 316.927 390.75 312.385 389.265C298.842 384.841 283.444 385.62 269.481 386.306C250.907 387.216 232.427 389.575 213.961 391.761C205.172 392.796 196.338 394.061 187.501 394.571C181.212 394.933 172.952 395.243 167.443 391.386C156.69 383.861 168.67 366.642 173.624 359.358C188.802 337.025 208.001 317.685 226.003 297.91C234.837 288.202 243.806 278.508 251.825 268.021C255.059 263.786 263.167 255.283 259.621 249.483Z" stroke="#101828"/>
<path fill-rule="evenodd" clip-rule="evenodd" d="M267.559 244.667C251.89 225.876 230.265 211.9 211.601 196.206C202.233 188.326 192.806 180.232 184.727 170.847C180.524 165.966 175.276 159.795 174.466 152.992C172.302 134.793 204.797 137.254 214.523 136.563C233.327 135.222 254.569 134.205 271.629 124.918C282.052 119.241 287.184 109.923 285.236 97.6756C284.373 92.2415 283.028 87.6252 285.236 82.2895C287.474 76.8839 292.136 73.0697 296.856 70.2103C310.422 61.9867 327.28 59.3577 342.554 57.3988C360.471 55.1173 378.523 54.2264 396.564 54.7335C412.364 55.1709 428.089 50.2517 443.517 47.0094C463.955 42.7165 484.764 38.967 505.678 39.5337C522.195 39.9839 538.842 43.5212 552.962 52.9222C567.311 62.4965 575.937 76.8269 583.715 92.2907C595.473 115.668 610.125 146.994 635.919 155.872C639.671 157.166 643.167 157.308 647.036 157.533C648.916 157.642 651.342 157.675 652.275 159.743C654.517 164.722 646.227 174.374 643.913 177.738C636.528 188.476 628.522 198.731 620.953 209.328C613.886 219.22 606.19 229.529 601.8 241.122C594.815 259.585 617.147 270.381 616.521 287.974C616.131 298.897 606.217 306.729 598.365 312.148C588.698 318.811 574.779 323.192 569.941 335.351C566.337 344.408 571.992 349.679 576.347 356.552C583.727 368.196 584.23 383.981 583.462 397.46C582.427 415.675 578.381 434.158 571.494 450.9C568.373 458.49 564.55 466.385 558.922 472.28C553.649 477.804 548.659 479.22 541.612 478.089C520.041 474.621 498.261 464.956 477.575 456.324C451.584 445.477 425.952 433.501 401.085 420.027C384.129 410.838 366.79 401.117 351.907 388.421C348.028 385.112 344.055 381.515 341.219 377.15C339.074 373.869 338.164 371.159 334.55 369.286C323.838 363.735 308.938 365.187 297.46 365.764C279.107 366.683 260.843 369.128 242.603 371.33C231.96 372.624 211.91 376.694 203.411 366.931C196.074 358.5 204.927 344.126 209.449 336.7C220.887 317.918 235.601 301.435 249.253 284.463C255.509 276.684 262.011 268.846 267.178 260.198C268.498 257.994 270.613 255.072 270.976 252.394C271.384 249.325 269.482 246.983 267.559 244.667Z" stroke="#101828"/>
<path fill-rule="evenodd" clip-rule="evenodd" d="M268.906 249.042C254.427 232.427 236.985 218.777 221.442 203.228C214.473 196.257 207.435 188.944 202.125 180.439C199.268 175.866 196.235 170.109 197.023 164.425C199.283 148.11 226.009 149.584 236.806 148.628C252.85 147.225 271.281 145.811 285.467 137.014C294.76 131.252 298.244 122.742 296.51 111.767C294.647 99.9948 298.811 91.449 308.288 84.8817C320.17 76.6544 335.169 73.3008 348.964 70.9183C365.586 68.0616 382.418 66.7953 399.255 67.1348C415.63 67.4663 431.494 64.5711 447.761 62.6884C469.329 60.1946 491.588 58.9645 512.913 64.0765C531.479 68.5281 548.249 78.3376 560.821 93.5077C573.951 109.341 580.452 129.289 591.114 146.805C597.764 157.731 607.038 172.184 619.464 176.431C623.609 177.847 631.162 175.936 627.852 182.905C625.96 186.89 622.419 190.386 619.621 193.644C615.101 198.909 610.431 204.029 605.835 209.221C596.039 220.289 585.549 231.593 578.207 244.699C568.955 261.2 582.707 273.9 581.031 290.631C580.13 299.636 574.197 306.822 567.92 312.467C563.859 316.124 559.414 319.291 554.877 322.246C550.139 325.333 544.532 327.684 540.399 331.675C534.51 337.354 537.067 344.076 538.171 351.418C540.115 364.32 540.541 377.426 539.442 390.439C538.097 406.388 534.944 422.794 528.301 437.288C525.717 442.931 522.444 448.913 517.583 452.696C512.721 456.48 507.693 456.221 502.123 455.082C485.601 451.715 469.113 443.881 453.44 436.457C433.823 427.163 414.592 416.776 396.227 404.959C383.55 396.802 370.831 387.989 360.225 376.929C357.141 373.71 354.206 370.263 351.833 366.415C350.204 363.776 349.33 360.37 346.969 358.387C339.583 352.195 324.754 354.044 316.092 354.404C298.804 355.121 281.789 358.532 264.523 359.361C255.1 359.814 240.342 360.953 233.422 352.488C226.914 344.53 232.808 331.996 236.698 324.328C244.342 309.251 254.611 295.818 263.816 281.803C267.6 276.036 271.747 270.002 274.199 263.417C276.378 257.549 272.616 253.302 268.906 249.042Z" stroke="#101828"/>
<path fill-rule="evenodd" clip-rule="evenodd" d="M272.467 249.313C260.942 234.693 247.05 221.714 235.442 206.855C228.648 198.153 216.947 183.525 222.202 171.257C227.966 157.777 248.06 157.409 259.675 156.323C273.499 155.03 289.733 153.264 301.564 144.847C305.305 142.186 308.493 138.664 309.844 134.025C311.29 129.06 309.709 124.716 309.503 119.745C309.071 109.319 314.971 100.948 322.778 95.1997C333.811 87.0721 347.609 83.2294 360.641 80.5504C375.405 77.5287 390.415 76.039 405.455 76.1026C419.828 76.1543 434.049 75.8181 448.437 75.4302C467.253 74.9131 486.334 75.7483 504.586 81.021C522.566 86.2187 538.913 95.96 551.754 110.289C564.281 124.271 572.733 141.361 580.135 158.77C584.336 168.65 591.432 183.416 601.45 188.407C605.905 190.628 610.277 190.476 605.54 196.253C599.574 203.527 591.535 209.363 584.625 215.585C574.658 224.564 564.441 233.718 556.075 244.392C550.732 251.209 548.351 257.824 548.719 266.65C549.003 273.373 550.293 280.027 549.641 286.776C548.113 302.617 536.287 313.481 525.832 323.597C519.107 330.103 512.965 335.066 509.503 344.321C505.408 355.259 503.689 367.16 500.953 378.517C497.947 390.989 494.475 403.963 487.913 414.948C482.073 424.728 474.969 429.113 464.338 426.478C447.755 422.372 431.411 412.256 416.689 402.897C401.706 393.376 386.979 382.67 374.563 369.583C367.859 362.515 363.284 354.217 357.33 346.625C349.842 337.093 332.902 340.703 322.834 341.51C306.122 342.849 253.535 352.872 258.388 320.408C260.413 306.858 268.389 294.353 274.222 282.395C276.64 277.433 280.139 271.477 280.685 265.791C281.281 259.598 275.931 253.715 272.467 249.313Z" stroke="#101828"/>
<path fill-rule="evenodd" clip-rule="evenodd" d="M278.551 250.555C269.744 237.306 259.205 224.788 251.649 210.478C246.747 201.21 241.933 188.828 248.256 179.022C255.394 167.956 271.132 165.377 282.696 163.966C294.61 162.515 308.833 161.294 318.571 152.903C321.669 150.231 324.223 146.627 324.699 142.311C325.157 138.171 323.863 134.032 324.292 129.817C325.253 120.353 330.691 112.555 337.704 106.899C358.447 90.1669 389.319 86.4464 414.347 86.0091C426.874 85.7918 439.766 86.9328 452.374 87.7504C468.735 88.8112 485.12 91.088 500.723 96.5756C533.897 108.239 556.133 134.107 571.662 166.295C576.55 176.427 580.29 187.389 587.949 195.531C591.898 199.736 591.035 202.755 586.998 206.589C580.687 212.581 572.988 217.161 565.983 222.162C556.02 229.275 545.843 236.493 537.032 245.013C530.958 250.886 526.647 256.545 525.338 265.352C524.404 271.631 524.623 278.029 524.061 284.347C522.993 296.35 519.333 308.262 512.855 318.218C507.708 326.109 501.581 333.281 495.247 340.119C487.014 349.022 480.051 358.067 473.798 368.633C465.509 382.62 453.862 408.42 434.337 401.593C412.803 394.058 392.618 374.915 378.802 356.367C374.162 350.139 370.354 342.502 364.096 337.909C354.728 331.045 345.223 331.286 334.081 331.314C317.399 331.353 281.1 335.175 280.708 308.805C280.553 298.358 284.838 288.479 286.889 278.43C289.203 267.176 284.566 259.585 278.551 250.555Z" stroke="#101828"/>
<path fill-rule="evenodd" clip-rule="evenodd" d="M285.11 251.736C276.399 234.468 256.866 206.092 271.723 186.89C279.57 176.742 293.451 172.929 305.095 170.656C314.465 168.818 325.766 168.127 332.846 160.335C338.049 154.605 335.739 146.267 337.733 139.095C340.207 130.204 345.887 122.928 352.867 117.46C372.37 102.177 399.489 97.4871 422.95 96.4891C447.317 95.4549 474.165 100.292 497.095 109.597C525.685 121.204 547.104 143.18 562.083 171.01C564.847 176.147 567.358 181.419 570.011 186.619C571.794 190.106 574.438 193.48 575.843 197.149C578.182 203.266 575.426 208.267 571.007 212.254C564.65 217.993 556.842 222.078 549.595 226.386C539.685 232.281 529.555 238.069 520.336 244.986C514.141 249.639 507.657 254.653 505.44 262.727C503.927 268.234 503.613 274.067 503.667 279.771C503.785 292 503.177 301.889 497.767 313.089C488.865 331.477 475.176 348.011 460.714 361.769C449.365 372.566 431.406 389.338 414.87 382.119C400.033 375.655 391.354 360.184 381.579 347.675C376.826 341.594 371.487 336.041 365.214 331.715C357.305 326.262 349.86 323.974 340.49 323.082C324.718 321.58 300.938 321.19 296.063 301.23C294.262 293.864 295.29 286.234 294.346 278.773C293.112 268.906 289.505 260.447 285.11 251.736Z" stroke="#101828"/>
<path fill-rule="evenodd" clip-rule="evenodd" d="M294.168 252.376C287.965 233.481 279.816 209.668 294.798 192.875C302.055 184.74 312.262 180.192 322.141 176.793C329.216 174.358 340.451 173.641 344.789 166.153C347.975 160.642 348.416 153.04 351.298 147.136C355.258 139.019 361.258 132.333 368.296 127.1C386.633 113.462 410.516 108.192 432.296 106.683C479.62 103.409 527.773 129.486 553.096 172.391C560.647 185.18 570.394 198.792 558.191 211.858C544.869 226.112 524.8 232.79 508.899 242.918C502.824 246.785 495.082 251.434 491.692 258.435C489.653 262.644 489.514 267.924 489.421 272.557C489.175 284.357 488.247 294.97 483.749 305.98C476.804 322.996 465.729 338.694 453.179 351.553C442.233 362.766 426.625 375.943 410.729 367.86C398.541 361.648 390.812 348.463 381.342 338.744C370.803 327.919 357.77 320.625 343.458 317.061C329.535 313.603 314.264 311.271 306.927 296.579C304.41 291.54 301.78 285.015 300.836 279.437C299.313 270.24 297.083 261.19 294.168 252.376Z" stroke="#101828"/>
<path fill-rule="evenodd" clip-rule="evenodd" d="M304.267 252.509C301.398 233.429 301.079 213.534 314.412 198.496C320.634 191.481 328.5 186.497 336.454 181.981C342.306 178.658 348.349 175.856 352.72 170.408C356.769 165.365 359.848 159.509 363.757 154.333C368.914 147.474 375.085 141.537 382.032 136.749C399.446 124.77 420.63 119.167 440.896 117.224C450.707 116.279 461.349 115.788 471.094 118.363C480.504 120.847 489.81 124.775 498.463 129.355C516.858 139.083 532.8 153.329 544.357 171.34C552.282 183.694 556.567 195.707 546.305 208.239C534.736 222.366 516.596 230.161 501.644 239.329C491.389 245.618 479.896 251.782 477.981 265.145C476.455 275.778 475.216 285.871 471.27 295.922C465.397 310.747 456.761 324.177 445.875 335.414C435.92 345.652 423.325 354.339 409.085 348.871C397.803 344.531 389.049 334.809 379.192 327.858C368.206 320.094 356.137 315.814 343.427 312.372C332.005 309.267 321.25 304.495 313.867 294.364C312.356 292.294 310.769 290.04 309.604 287.724C308.118 284.768 308.233 281.839 307.942 278.527C307.181 269.785 305.565 261.144 304.267 252.509Z" stroke="#101828"/>
<path fill-rule="evenodd" clip-rule="evenodd" d="M315.403 250.949C315.648 232.826 319.779 215.699 331.093 201.575C335.93 195.533 341.706 190.557 347.028 185.02C351.313 180.557 355.363 176.41 360.291 172.732C371.98 164.023 381.479 152.753 393.901 144.998C410.483 134.63 429.478 128.899 448.325 126.608C457.528 125.488 467.035 125.096 476.346 126.361C484.343 127.447 492.002 131.26 499.106 135.161C513.031 142.802 526.551 153.663 535.593 167.403C555.526 197.695 516.225 219.719 496.054 232.616C486.778 238.549 472.603 245.421 468.803 257.173C466.087 265.568 464.432 274.106 460.934 282.242C451.537 304.092 432.461 329.792 407.042 326.37C396.164 324.908 386.25 318.97 376.096 314.984C365.64 310.878 354.848 308.589 343.981 306.078C333.824 303.732 325.729 300.394 319.169 291.444C316.033 287.169 316.31 282.053 316.031 276.809C315.575 268.196 315.293 259.534 315.403 250.949Z" stroke="#101828"/>
<path fill-rule="evenodd" clip-rule="evenodd" d="M325.543 248.628C329.627 221.273 344.794 191.409 367.096 175.523C393.33 156.835 421.75 141.099 453.093 136.575C467.625 134.477 483.543 133.445 497.255 140.304C507.691 145.521 519.812 153.32 525.555 164.287C539.606 191.112 508.353 212.466 490.548 224.876C480.961 231.557 468.759 238.067 461.534 247.824C457.342 253.48 455.202 260.963 451.817 267.176C441.561 286.003 424.678 301.189 403.647 303.905C393.924 305.159 384.129 303.607 374.479 302.373C364.6 301.111 354.599 300.426 344.782 298.664C336.946 297.257 327.71 294.875 324.824 286.027C321.184 274.876 323.877 259.799 325.543 248.628Z" stroke="#101828"/>
<path fill-rule="evenodd" clip-rule="evenodd" d="M335.487 244.234C341.443 218.515 354.055 193.429 375.257 178.075C386.501 169.934 399.553 164.314 412.085 158.761C426.289 152.468 441.13 147.583 456.288 145.16C475.161 142.142 505.728 139.421 515.588 162.111C525.375 184.632 500.644 204.565 486.019 215.924C476.643 223.201 466.608 229.879 457.649 237.834C452.792 242.147 449.049 247.13 444.939 252.189C433.577 266.204 417.38 277.299 400.87 283.222C384.87 288.963 365.075 291.505 348.185 289.608C340.897 288.792 335.688 286.041 333.484 278.218C330.43 267.343 333.025 254.858 335.487 244.234Z" stroke="#101828"/>
<path fill-rule="evenodd" clip-rule="evenodd" d="M345.367 237.307C351.284 214.663 364.046 193.98 382.661 180.39C403.528 165.155 430.398 156.689 455.094 152.384C468.222 150.097 496.669 143.897 503.36 161.641C510.051 179.384 490.708 196.87 479.575 206.496C466.063 218.161 451.495 229.424 436.945 239.89C424.302 248.99 410.812 258.293 397.119 265.321C389.396 269.307 381.351 272.562 373.079 275.047C366.954 276.872 359.166 279.594 352.744 278.236C336.547 274.805 342.537 248.134 345.367 237.307Z" stroke="#101828"/>
<path fill-rule="evenodd" clip-rule="evenodd" d="M357.563 230.526C370.545 187.703 411.677 166.642 451.28 159.302C460.483 157.598 486.281 151.454 491.425 164.535C496.409 177.218 480.556 192.26 473.134 199.386C450.136 221.468 421.722 237.841 394.798 254.062C386.393 259.124 371.236 270.111 360.811 265.043C349.492 259.53 354.874 239.405 357.563 230.526Z" stroke="#101828"/>
<path fill-rule="evenodd" clip-rule="evenodd" d="M370.861 222.284C382.151 190.748 414.989 172.661 445.18 166.699C452.575 165.24 471.356 160.697 476.956 169.498C482.139 177.638 469.77 189.434 465.143 194.121C454.841 204.559 442.632 213.158 430.57 221.422C419.417 229.069 408.145 236.907 396.41 243.374C390.229 246.778 378.637 254.042 371.613 248.786C364.051 243.131 368.354 229.286 370.861 222.284Z" stroke="#101828"/>
<path fill-rule="evenodd" clip-rule="evenodd" d="M385.515 213.07C394.12 192.476 417.166 179.103 437.496 174.659C442.967 173.466 454.79 170.371 459.405 175.87C463.653 180.936 456.806 188.361 453.767 191.79C440.299 206.991 420.576 220.568 402.506 228.907C397.962 231.004 389.795 235.119 385.121 230.887C380.327 226.542 383.538 217.799 385.515 213.07Z" stroke="#101828"/>
<path fill-rule="evenodd" clip-rule="evenodd" d="M401.06 204.419C405.909 194.193 418.582 186.478 429.08 184.022C436.468 182.295 445.348 183.787 438.91 192.688C432.513 201.522 420.645 209.59 410.586 213.167C402.911 215.894 396.896 213.203 401.06 204.419Z" stroke="#101828"/>
<path fill-rule="evenodd" clip-rule="evenodd" d="M7.85237 275.247C7.54138 255.044 -2.63316 234.047 2.39166 213.461C6.51779 196.554 27.2905 195.143 39.7521 187.483C49.6548 181.397 55.2747 170.617 60.6301 160.273C65.4419 150.987 69.7639 141.422 74.8328 132.289C78.1141 126.384 83.7487 114.789 90.8647 114.58C97.6771 114.378 103.924 123.414 107.881 128.755C113.041 135.717 117.615 143.139 122.625 150.212C131.068 162.142 141.199 170.974 152.798 179.331C165.999 188.842 179.417 198.027 193.053 206.887C203.093 213.43 213.201 219.924 222.852 227.114C228.905 231.625 242.266 240.089 242.327 248.405C242.356 252.374 238.793 256.768 236.391 259.94C232.326 265.31 227.693 270.219 223.045 275.023C214.389 283.97 205.365 292.511 196.44 301.156C184.855 312.376 173.789 323.412 163.605 336.15C153.075 349.334 143.016 362.953 132.75 376.386C125.799 385.485 118.854 395.705 108.826 401.289C96.2667 408.269 85.9575 400.909 73.2558 400.823C62.3295 400.748 63.1352 374.028 61.7467 366.598C60.3534 359.078 57.2827 352.077 56.0926 344.538C54.6087 335.128 54.5891 325.501 54.2242 315.99C53.781 304.357 53.6047 293.282 41.8238 288.846C35.1191 286.325 27.8659 285.795 20.9262 284.285C16.4303 283.306 7.95032 281.63 7.85237 275.247Z" stroke="#101828"/>
<path fill-rule="evenodd" clip-rule="evenodd" d="M13.2239 271.653C12.0786 254.718 5.31228 233.042 11.7107 215.56C17.1773 200.621 34.2733 198.685 45.7851 190.837C55.2884 184.364 59.5189 173.772 64.2693 163.367C68.0804 155.019 71.7762 146.592 76.1024 138.511C79.2905 132.556 84.1587 122.503 90.7877 121.27C96.7471 120.162 103.138 129.038 106.483 133.553C111.364 140.145 115.538 147.304 119.849 154.312C127.425 166.624 135.182 177.695 146.27 186.738C157.406 195.821 169.59 202.612 181.904 209.681C191.537 215.211 201.121 220.902 210.274 227.286C217.091 232.04 226.894 238.125 230.013 246.601C232.483 253.307 219.958 264.435 216.265 268.363C208.662 276.438 200.606 284.019 192.535 291.553C182.696 300.734 172.543 308.763 163.854 319.236C148.312 337.961 135.322 361.278 115.324 375.195C103.263 383.588 89.841 385.735 76.4261 384.479C71.1141 383.982 69.8388 376.067 69.1693 371.451C68.0559 363.782 67.9161 355.981 67.0602 348.281C66.2582 341.073 64.4777 334.224 63.043 327.156C61.5912 319.995 61.1841 312.657 60.1148 305.447C59.4526 300.97 58.7978 295.761 55.9015 292.162C52.9046 288.436 47.9604 286.875 43.6392 285.689C35.5241 283.483 14.0332 283.605 13.2239 271.653Z" stroke="#101828"/>
<path fill-rule="evenodd" clip-rule="evenodd" d="M20.1374 264.564C18.2113 249.019 15.5147 229.657 23.3615 215.334C29.7754 203.624 43.4547 201.097 53.2252 193.467C61.3518 187.121 64.4213 177.029 68.4552 167.651C71.7652 159.958 75.0924 152.232 79.1042 144.912C82.1467 139.361 86.0677 131.833 92.1086 129.897C97.2736 128.242 103.108 135.655 105.972 139.345C110.847 145.634 114.822 152.68 118.77 159.633C125.228 171.01 131.171 183.163 140.363 192.417C149.294 201.397 159.904 206.698 170.712 212.658C178.991 217.225 187.218 221.967 195.018 227.412C201.008 231.591 208.43 236.543 211.551 243.496C214.25 249.492 207.321 256.59 203.859 260.82C198.142 267.801 191.797 274.206 185.54 280.637C178.787 287.574 171.308 293.974 164.774 301.082C151.034 316.041 140.056 332.602 123.121 344.062C112.153 351.486 97.3939 358.229 84.4286 357.017C75.1047 356.143 75.7181 334.366 74.8225 327.408C73.3503 316.03 70.5065 304.077 65.9892 293.597C62.11 284.616 52.8915 281.847 44.4116 279.833C39.0994 278.568 33.532 277.886 28.394 275.931C22.4463 273.666 20.9446 271.08 20.1374 264.564Z" stroke="#101828"/>
<path fill-rule="evenodd" clip-rule="evenodd" d="M26.5861 257.277C25.4393 244.135 25.6972 228.593 33.1258 217.224C39.6361 207.266 51.2272 204.644 59.4712 196.799C65.9053 190.679 68.4323 180.7 71.8924 172.606C76.1213 162.71 82.047 144.432 92.7148 140.709C102.639 137.246 113.017 159.362 116.609 165.957C122.297 176.395 127.054 187.842 133.952 197.481C139.892 205.78 147.852 210.367 156.299 215.297C167.07 221.594 183.423 229.06 189.182 241.331C193.475 250.475 179.516 264.069 174.749 270.405C169.764 277.023 166.009 284.868 160.865 291.252C152.746 301.327 139.59 309.439 128.729 315.629C118.169 321.651 104.456 328.316 92.4766 327.919C84.6034 327.66 83.1054 314.828 81.4257 308.56C79.0191 299.649 75.8192 291.665 68.9455 285.604C61.9491 279.435 53.7026 276.527 45.0338 273.983C40.584 272.687 35.5079 271.675 31.5271 269.056C27.1289 266.206 27.0282 262.329 26.5861 257.277Z" stroke="#101828"/>
<path fill-rule="evenodd" clip-rule="evenodd" d="M34.4435 249.702C34.5071 238.347 36.9671 226.239 44.2616 217.481C50.337 210.186 59.8467 207.747 65.6627 200.289C70.2694 194.385 72.6144 186.096 75.6986 179.24C79.4707 170.838 84.8044 156.159 94.1844 153.243C103.339 150.405 111.436 166.572 114.947 172.969C120.087 182.349 124.248 192.292 129.435 201.647C133.498 208.986 138.467 213.716 145.084 218.446C152.851 224.002 163.687 230.157 167.836 239.349C170.827 246.004 163.587 256.638 160.958 262.501C159.195 266.439 157.582 270.439 156.696 274.708C156.006 278.031 155.937 281.107 153.938 283.961C148.902 291.14 137.863 292.077 130.373 294.444C120.425 297.584 109.87 301.153 99.4594 301.834C93.0608 302.26 89.7955 296.038 86.1434 291.662C81.8279 286.488 75.7182 282.767 70.382 278.862C63.3397 273.701 55.6756 270.491 47.7472 267.203C44.171 265.719 39.9706 264.264 37.1997 261.314C34.3064 258.256 34.4214 253.8 34.4435 249.702Z" stroke="#101828"/>
<path fill-rule="evenodd" clip-rule="evenodd" d="M42.6959 242.961C43.9603 233.425 47.9004 224.311 54.5554 217.569C59.6569 212.394 66.4319 209.48 70.5264 203.261C74.3415 197.464 77 190.873 80.1511 184.675C83.486 178.123 88.4405 167.171 96.1319 165.388C104.421 163.468 110.807 174.515 114.343 180.638C118.809 188.376 122.203 196.701 126.197 204.705C129.206 210.671 133.044 216.127 137.584 220.892C142.344 225.915 148.801 230.726 151.21 237.633C153.339 243.751 149.355 251.152 148.652 257.355C147.899 263.982 149.218 270.944 145.047 276.634C136.447 288.37 114.862 286.194 102.522 286.445C90.3468 286.704 80.5579 279.522 70.7052 272.69C64.1973 268.18 57.4198 264.36 50.7476 260.157C43.9456 255.869 41.5835 251.354 42.6959 242.961Z" stroke="#101828"/>
<path fill-rule="evenodd" clip-rule="evenodd" d="M50.3633 237.503C54.1023 223.688 65.7801 216.345 74.1284 205.905C80.959 197.358 86.0808 179.657 97.5845 177.316C110.645 174.659 118.464 198.111 123.005 207.161C128.043 217.197 137.016 225.361 140.748 235.985C142.709 241.562 141.025 246.765 139.981 252.339C138.836 258.459 137.975 264.717 134.023 269.643C126.243 279.337 111.05 279.27 100.107 279.537C88.7802 279.814 78.7598 273.17 69.7348 266.54C60.163 259.518 46.5336 251.671 50.3633 237.503Z" stroke="#101828"/>
<path fill-rule="evenodd" clip-rule="evenodd" d="M56.6257 233.757C60.8388 223.914 69.6922 215.912 76.8762 208.358C82.8724 202.06 89.323 189.383 98.4654 188.479C109.211 187.413 115.723 200.951 119.951 209.251C124.112 217.408 130.108 226.02 132.412 234.972C134.815 244.298 128.416 256.857 122.314 263.456C115.508 270.814 104.373 273.533 94.8178 273.239C84.8135 272.941 75.6341 266.859 68.0574 260.551C59.9571 253.808 51.726 245.183 56.6257 233.757Z" stroke="#101828"/>
<path fill-rule="evenodd" clip-rule="evenodd" d="M62.4365 231.904C66.4609 223.717 73.4369 216.792 79.869 210.614C84.8327 205.845 92.1572 197.736 99.3186 197.537C107.197 197.318 113.874 204.125 117.006 211.102C120.093 217.983 123.346 226.611 123.809 234.161C124.812 250.601 104.379 269.017 89.0351 267.519C74.4875 266.098 54.4124 248.215 62.4365 231.904Z" stroke="#101828"/>
<path fill-rule="evenodd" clip-rule="evenodd" d="M67.8105 231.001C73.3623 220.335 86.848 205.128 99.3329 204.767C113.664 204.354 117.261 221.276 115.393 233.539C113.495 246.056 96.9733 264.172 83.799 261.724C70.941 259.335 61.2307 243.651 67.8105 231.001Z" stroke="#101828"/>
<path fill-rule="evenodd" clip-rule="evenodd" d="M73.4846 229.276C78.1852 220.345 88.2159 209.19 98.6777 208.853C111.143 208.453 110.908 222.74 108.081 231.632C105.142 240.865 92.1963 256.634 81.2813 254.144C70.6676 251.713 68.9799 237.836 73.4846 229.276Z" stroke="#101828"/>
<path fill-rule="evenodd" clip-rule="evenodd" d="M78.4266 228.249C81.5293 221.876 89.2947 213.822 96.6768 213.564C105.7 213.254 103.946 224.586 101.615 230.055C98.8436 236.563 89.5551 247.872 81.7602 246.039C74.0857 244.235 75.8668 233.499 78.4266 228.249Z" stroke="#101828"/>
<path fill-rule="evenodd" clip-rule="evenodd" d="M502.891 592.359C482.92 605.144 460.342 615.698 439.051 626.425C407.937 642.1 376.365 657.352 343.673 669.029C326.145 675.287 303.432 684.31 284.625 679.407C277.749 677.614 271.478 672.194 265.312 668.672C256.811 663.815 248.184 659.199 239.572 654.572C222.297 645.299 204.968 636.118 187.989 626.249C179.813 621.496 171.881 615.509 163.369 611.454C158.395 609.083 152.443 610.192 147.128 610.342C134.817 610.692 122.513 611.354 110.21 611.917C95.1603 612.605 80.0766 613.337 65.01 613.066C58.2146 612.941 41.5718 614.214 37.8309 608.038C35.8182 604.713 40.5618 598.715 42.7607 595.94C46.7982 590.841 51.4388 586.245 56.0181 581.696C66.6084 571.176 77.8556 561.157 87.2691 549.406C92.1058 543.365 98.4428 535.984 95.2853 527.737C92.0984 519.408 86.5778 512.195 83.2095 503.894C79.3313 494.341 77.7232 484.4 75.8919 474.27C74.5363 466.783 71.3788 460.15 68.4101 453.248C65.1301 445.619 61.7324 437.925 59.455 429.88C57.9498 424.565 55.5205 415.004 60.7862 411.64C68.268 406.856 82.2975 410.73 90.8261 412.139C102.613 414.084 114.313 416.561 126.068 418.695C134.602 420.246 143.164 421.948 151.84 422.129C165.826 422.421 179.858 421.41 193.806 420.469C219.635 418.726 245.278 416.362 271.193 416.362C293.898 416.362 346.367 444.077 358.649 448.957C383.163 458.699 408.33 467.934 431.528 480.895C437.803 484.405 447.462 489.08 450.764 496.303C452.801 500.754 451.865 503.327 456.67 506.195C463.225 510.108 471.623 511.644 478.88 513.395C490.566 516.214 502.342 518.601 514.082 521.153C537.827 526.302 561.41 532.126 585.056 537.73C592.205 539.424 600.854 539.799 607.669 542.783C612.062 544.7 611.606 547.112 608.205 550.024C602.241 555.134 593.882 557.971 586.836 560.886C576.513 565.156 566.021 568.965 555.524 572.72C545.027 576.475 534.476 580.114 523.974 583.876C517.036 586.354 509.125 588.368 502.891 592.359Z" stroke="#101828"/>
<path fill-rule="evenodd" clip-rule="evenodd" d="M486.456 589.546C465.33 602.358 441.88 612.564 419.272 622.522C390.339 635.274 360.751 647.226 330.266 655.198C312.367 659.875 291.248 665.039 272.959 659.675C266.434 657.761 261.559 653.46 255.966 649.663C249.591 645.33 242.971 641.36 236.351 637.452C222.723 629.408 208.951 621.639 195.035 614.144C187.664 610.158 179.551 604.821 171.224 603.438C164.604 602.337 157.083 603.93 150.434 604.394C138.458 605.228 126.485 606.087 114.505 606.818C100.681 607.659 86.8173 608.436 72.9637 608.302C65.2425 608.226 51.9871 609.467 46.5266 604.202C41.7624 599.608 59.1076 582.992 62.1579 579.835C71.6838 569.978 81.7025 560.592 90.5689 550.052C95.8087 543.836 102.189 536.277 104.398 528.039C106.279 521.018 102.65 513.018 100.507 506.528C97.8267 498.399 95.664 489.971 92.55 482.013C89.7769 474.922 85.3633 468.606 81.4867 462.16C77.2228 455.069 72.9048 447.861 69.7394 440.126C67.7998 435.366 64.5902 427.394 68.4447 422.857C72.8975 417.626 86.6236 421.044 92.2656 421.79C103.711 423.323 115.069 425.602 126.436 427.643C145.316 431.03 163.316 433.993 182.542 433.283C207.579 432.356 232.592 430.176 257.624 428.969C266.868 428.518 276.259 427.612 285.51 428.101C290.814 428.384 294.852 430.093 297.937 433.949C302.149 439.211 311.852 442.125 318.599 445.145C329.121 449.85 339.775 454.227 350.399 458.661C373.722 468.398 397.494 477.784 419.613 490.378C426.611 494.361 434.624 498.803 439.8 505.383C442.689 509.053 441.961 512.588 443.723 516.488C446.058 521.619 453.732 523.934 458.32 525.612C467.174 528.855 476.391 531.027 485.537 533.063C506.232 537.668 526.975 540.695 548.006 542.925C552.934 543.443 572.342 545.238 562.149 553.887C550.887 563.446 534.625 568.131 521.368 573.518C509.424 578.361 497.471 582.867 486.456 589.546Z" stroke="#101828"/>
<path fill-rule="evenodd" clip-rule="evenodd" d="M457.26 587.177C437.403 598.448 415.404 606.857 394.017 614.901C368.065 624.662 341.462 633.363 314.243 638.237C297.144 641.296 278.292 643.647 261.309 638.563C249.711 635.093 240.739 625.712 230.553 619.258C220.366 612.804 209.767 606.746 198.852 601.696C192.077 598.562 184.789 595.405 177.251 595.819C158.922 596.822 140.616 599.214 122.268 600.375C110.13 601.15 97.9671 601.789 85.7923 601.598C78.4505 601.484 68.3645 601.949 61.8647 597.874C54.6801 593.367 92.9351 554.886 96.5508 550.555C105.616 539.695 116.593 525.282 114.84 509.838C113.164 495.073 105.898 484.05 97.6799 472.482C93.0161 465.901 78.0602 448.321 83.6027 439.762C86.7692 434.87 97.2061 436.563 102.164 436.897C111.936 437.554 121.654 438.966 131.374 440.191C145.547 441.968 160.11 444.711 174.345 445.515C184.256 446.074 194.227 445.326 204.156 445.311C218.393 445.29 232.629 445.404 246.866 445.538C258.82 445.652 270.875 445.539 282.787 446.749C290.192 447.493 295.813 449.166 301.125 453.893C305.747 458.004 312.721 460.412 318.612 463.026C328.342 467.341 338.2 471.341 348.025 475.406C368.597 483.918 389.405 492.252 409.096 502.89C418.085 507.743 433.198 514.539 435.306 526.306C436.067 530.55 436.627 532.383 440.554 534.795C446.129 538.219 452.805 539.763 459.06 541.104C473.64 544.233 488.643 543.765 503.198 546.858C509.126 548.133 516.866 550.884 510.098 557.183C502.202 564.549 490.707 568.599 481.247 573.149C476.524 575.42 471.659 577.545 467.175 580.317C463.731 582.453 460.783 585.191 457.26 587.177Z" stroke="#101828"/>
<path fill-rule="evenodd" clip-rule="evenodd" d="M419.649 583.658C401.303 592.813 381.379 599.469 361.812 605.469C340.079 612.125 317.821 617.638 295.27 619.984C279.698 621.609 263.106 622.088 247.993 617.114C238.435 613.968 231.955 607.351 223.73 601.801C211.317 593.414 197.887 586.768 182.975 588.386C166.256 590.195 149.482 591.552 132.654 592.458C122.503 593.004 112.313 593.414 102.15 593.033C95.7237 592.795 87.4452 592.393 81.8551 589.321C74.3754 585.208 102.471 553.908 105.973 549.346C114.658 538.033 121.025 526.162 124.745 512.145C127.779 500.707 121.581 491.715 115.187 483.159C111.212 477.846 98.3681 464.482 102.39 457.583C104.595 453.778 111.864 453.975 115.768 453.78C123.209 453.412 130.681 453.796 138.121 453.964C149.108 454.223 160.803 452.443 171.696 453.876C195.839 457.049 219.919 459.796 244.211 461.971C257.602 463.168 271.074 464.257 284.344 466.566C289.109 467.395 294.03 468.274 298.544 470.151C301.448 471.356 303.031 473.409 305.482 475.093C317.167 483.113 332.42 487.239 345.581 492.379C363.077 499.211 380.665 505.937 397.696 514.008C406.653 518.254 419.164 523.132 425.328 531.797C427.19 534.414 426.396 536.509 427.568 539.025C428.915 541.928 433.011 542.794 435.655 543.603C441.657 545.44 466.779 548.219 455.202 558.999C449.678 564.133 442.64 567.428 436.412 571.463C434.158 572.925 431.959 574.395 430.08 576.367C426.935 579.674 423.838 581.561 419.649 583.658Z" stroke="#101828"/>
<path fill-rule="evenodd" clip-rule="evenodd" d="M379.575 579.694C343.357 594.505 300.911 604.596 261.425 602.641C248.294 601.988 234.166 599.811 222.783 592.359C216.072 587.957 210.708 582.988 202.646 581.398C196.826 580.251 190.558 581.553 184.704 582.025C176.224 582.708 167.739 583.319 159.247 583.814C148.719 584.417 138.157 584.883 127.61 584.635C120.073 584.456 109.665 584.658 103.118 580.386C95.3014 575.29 115.198 551.385 117.998 547.126C124.783 536.802 129.54 526.8 131.259 514.358C131.765 510.733 133.469 507.017 133.248 503.364C133.017 499.632 130.839 496.31 128.828 493.377C126.198 489.531 117.072 480.412 119.685 475.723C121.129 473.133 126.549 472.807 129.358 472.258C134.628 471.222 139.974 470.666 145.276 469.842C154.272 468.439 163.204 463.869 172.231 463.998C196.506 464.34 221.133 472.284 244.922 476.647C259.065 479.249 273.303 481.611 287.274 485.135C291.695 486.251 296.248 487.406 300.449 489.298C303.382 490.619 305.265 492.973 307.981 494.451C318.396 500.13 330.373 503.576 341.557 507.398C356.075 512.369 370.643 517.191 385.061 522.483C394.098 525.8 405.719 528.718 413.506 534.871C419.194 539.363 415.306 540.707 412.305 544.891C410.773 547.025 411.126 549.127 410.461 551.543C409.51 554.992 406.824 557.475 404.304 559.707C400.829 562.791 396.2 565.331 393.359 569.112C392.357 570.443 392.404 572.095 391.593 573.255C389.236 576.634 382.981 578.301 379.575 579.694Z" stroke="#101828"/>
<path fill-rule="evenodd" clip-rule="evenodd" d="M341.068 574.418C311.673 583.73 278.966 589.032 247.895 586.571C237.084 585.714 226.207 583.722 216.137 579.347C211.555 577.363 208.116 575.151 203.095 575.032C191.446 574.757 179.76 575.718 168.114 575.949C159.779 576.114 151.403 576.174 143.087 575.467C137.528 574.995 130.009 574.431 125.454 570.833C118.836 565.593 130.784 547.78 133.216 542.859C137.246 534.697 141.244 525.623 139.646 516.18C139.155 513.291 138.288 510.74 138.175 507.795C138.067 505.264 138.368 502.928 137.518 500.509C136.466 497.509 131.789 492.855 133.397 490.094C134.493 488.208 137.743 488.12 139.905 487.516C143.412 486.538 146.836 485.254 150.143 483.678C153.624 482.01 156.587 479.432 160.193 478.054C166.047 475.822 172.6 475.612 178.753 475.622C203.304 475.664 228.166 480.774 252.094 486.118C264.554 488.9 277.084 491.865 289.193 496.085C292.871 497.367 297.038 498.654 300.271 501.022C302.289 502.496 303.657 504.342 305.949 505.451C325.528 514.916 348.164 518.43 368.95 525.266C374.36 527.045 404.343 536.036 388.666 544.493C379.143 549.632 369.08 551.968 360.39 558.998C357.742 561.135 355.977 562.904 354.943 566.165C354.261 568.336 355.901 567.235 353.611 569.504C350.834 572.232 344.492 573.332 341.068 574.418Z" stroke="#101828"/>
<path fill-rule="evenodd" clip-rule="evenodd" d="M310.504 568.912C276.089 576.512 239.644 576.874 204.686 570.136C195.874 568.439 186.702 568.844 177.781 568.413C169.114 568 153.703 568.86 147.408 561.827C142.843 556.729 147.796 545.895 149.51 540.193C151.693 532.928 153.6 525.423 150.016 518.367C147.917 514.235 145.041 510.302 142.789 506.209C141.712 504.254 139.495 501.258 140.419 499.406C141.948 496.351 149.102 495.065 152.573 493.624C163.666 489.019 175.414 487.844 187.275 487.877C209.182 487.937 231.203 491.098 252.692 495.385C262.579 497.358 272.603 499.463 282.139 502.892C287.534 504.832 291.514 508.574 296.667 510.793C313.257 517.941 331.081 521.761 347.957 528.298C352.841 530.191 371.086 536.492 361.895 543.922C352.996 551.115 340.017 550.26 330.764 557.026C329.717 557.801 328.421 558.728 327.814 559.981C327.455 560.73 328.087 562.155 327.814 562.582C324.973 567.212 314.872 567.948 310.504 568.912Z" stroke="#101828"/>
<path fill-rule="evenodd" clip-rule="evenodd" d="M288.207 563.888C270.551 566.443 252.507 567.077 234.555 567.238C224.741 567.326 213.96 567.986 204.358 565.363C198.459 563.748 192.763 562.335 186.682 561.318C180.14 560.222 169.607 559.425 165.623 553.486C162.647 549.048 164.687 539.926 164.795 534.531C164.91 528.613 163.76 524.224 159.801 519.989C157.311 517.323 145.891 507.642 147.21 504.851C148.466 502.192 156.424 501.784 159.865 501.093C170.74 498.902 181.76 498.139 192.822 498.258C209.954 498.44 227.15 500.283 244.014 503.451C250.986 504.768 258.192 506.131 264.852 508.761C269.337 510.535 273.078 513.679 277.534 515.513C290.294 520.771 303.786 524.341 316.59 529.696C320.699 531.417 334.088 536 330.879 543.063C328.202 548.96 319.099 550.754 314.627 554.707C307.018 561.447 297.91 562.486 288.207 563.888Z" stroke="#101828"/>
<path fill-rule="evenodd" clip-rule="evenodd" d="M277.084 560.499C263.079 562.191 248.748 562.931 234.537 562.967C225.365 562.99 215.69 563.122 206.69 560.947C202.169 559.855 198.24 557.302 193.962 555.482C189.556 553.609 183.476 551.519 181.572 547.225C179.782 543.191 180.451 537.304 178.879 532.439C177.482 528.122 174.557 525.455 171.406 522.537C169.399 520.673 159.092 512.6 160.284 510.818C161.562 508.909 167.752 509.065 170.973 508.801C179.848 508.061 188.754 507.825 197.653 508.095C209.798 508.488 222.036 509.584 233.971 512.067C242.438 513.826 248.824 518.016 256.717 521.089C266.944 525.08 277.537 528.236 287.666 532.602C292.713 534.777 300.183 537.575 302.768 543.191C303.762 545.342 304.726 550.815 303.62 552.967C302.291 555.554 297.344 556.651 295.009 557.315C289.159 558.973 283.037 559.78 277.084 560.499Z" stroke="#101828"/>
</g>
</svg>
